<?xml version="1.0" encoding="UTF-8" standalone="no"?>
<!DOCTYPE svg PUBLIC "-//W3C//DTD SVG 1.1//EN"
 "http://www.w3.org/Graphics/SVG/1.1/DTD/svg11.dtd">
<!-- Generated by graphviz version 2.40.1 (20161225.0304)
 -->
<!-- Title: %3 Pages: 1 -->
<svg width="607pt" height="1061pt"
 viewBox="0.00 0.00 607.35 1060.60" xmlns="http://www.w3.org/2000/svg" xmlns:xlink="http://www.w3.org/1999/xlink">
<g id="graph0" class="graph" transform="scale(1 1) rotate(0) translate(4 1056.5963)">
<title>%3</title>
<polygon fill="#ffffff" stroke="transparent" points="-4,4 -4,-1056.5963 603.348,-1056.5963 603.348,4 -4,4"/>
<!-- ini -->
<g id="node1" class="node">
<title>ini</title>
<ellipse fill="#000000" stroke="#000000" cx="1.8" cy="-573.748" rx="1.8" ry="1.8"/>
</g>
<!-- s0 -->
<g id="node2" class="node">
<title>s0</title>
<ellipse fill="none" stroke="#000000" cx="67.6" cy="-573.748" rx="27" ry="18"/>
<text text-anchor="middle" x="67.6" y="-570.048" font-family="Times,serif" font-size="14.00" fill="#000000">s0</text>
</g>
<!-- ini&#45;&gt;s0 -->
<g id="edge1" class="edge">
<title>ini&#45;&gt;s0</title>
<path fill="none" stroke="#000000" d="M3.6983,-573.748C7.9356,-573.748 18.702,-573.748 30.2151,-573.748"/>
<polygon fill="#000000" stroke="#000000" points="30.3795,-577.2481 40.3795,-573.748 30.3794,-570.2481 30.3795,-577.2481"/>
</g>
<!-- s1 -->
<g id="node3" class="node">
<title>s1</title>
<ellipse fill="none" stroke="#000000" cx="259.6" cy="-1029.748" rx="18.724" ry="18.724"/>
<ellipse fill="none" stroke="#000000" cx="259.6" cy="-1029.748" rx="22.6977" ry="22.6977"/>
<text text-anchor="middle" x="259.6" y="-1026.048" font-family="Times,serif" font-size="14.00" fill="#000000">s1</text>
</g>
<!-- s0&#45;&gt;s1 -->
<g id="edge2" class="edge">
<title>s0&#45;&gt;s1</title>
<path fill="none" stroke="#000000" d="M68.4503,-591.8026C72.1329,-666.7739 87.6534,-951.0569 112.6,-981.748 140.223,-1015.7317 192.3297,-1025.8956 226.5018,-1028.7976"/>
<polygon fill="#000000" stroke="#000000" points="226.2679,-1032.2897 236.4843,-1029.4834 226.7477,-1025.3061 226.2679,-1032.2897"/>
<text text-anchor="middle" x="163.6" y="-1030.548" font-family="Times,serif" font-size="14.00" fill="#000000">+</text>
</g>
<!-- s2 -->
<g id="node4" class="node">
<title>s2</title>
<ellipse fill="none" stroke="#000000" cx="259.6" cy="-965.748" rx="18.724" ry="18.724"/>
<ellipse fill="none" stroke="#000000" cx="259.6" cy="-965.748" rx="22.6977" ry="22.6977"/>
<text text-anchor="middle" x="259.6" y="-962.048" font-family="Times,serif" font-size="14.00" fill="#000000">s2</text>
</g>
<!-- s0&#45;&gt;s2 -->
<g id="edge3" class="edge">
<title>s0&#45;&gt;s2</title>
<path fill="none" stroke="#000000" d="M68.87,-592.0426C73.7018,-659.4619 91.7234,-891.4403 112.6,-916.748 140.4041,-950.4535 192.1004,-961.1139 226.1793,-964.4037"/>
<polygon fill="#000000" stroke="#000000" points="226.3256,-967.9264 236.5722,-965.2327 226.8822,-960.9486 226.3256,-967.9264"/>
<text text-anchor="middle" x="163.6" y="-966.548" font-family="Times,serif" font-size="14.00" fill="#000000">&#45;</text>
</g>
<!-- s3 -->
<g id="node5" class="node">
<title>s3</title>
<ellipse fill="none" stroke="#000000" cx="259.6" cy="-901.748" rx="18.724" ry="18.724"/>
<ellipse fill="none" stroke="#000000" cx="259.6" cy="-901.748" rx="22.6977" ry="22.6977"/>
<text text-anchor="middle" x="259.6" y="-898.048" font-family="Times,serif" font-size="14.00" fill="#000000">s3</text>
</g>
<!-- s0&#45;&gt;s3 -->
<g id="edge4" class="edge">
<title>s0&#45;&gt;s3</title>
<path fill="none" stroke="#000000" d="M68.1662,-592.0544C70.2394,-647.492 79.1454,-812.1666 112.6,-851.748 140.8633,-885.1873 192.4361,-896.3218 226.3634,-899.9938"/>
<polygon fill="#000000" stroke="#000000" points="226.4288,-903.5144 236.7068,-900.9426 227.0683,-896.5437 226.4288,-903.5144"/>
<text text-anchor="middle" x="163.6" y="-901.548" font-family="Times,serif" font-size="14.00" fill="#000000">*</text>
</g>
<!-- s4 -->
<g id="node6" class="node">
<title>s4</title>
<ellipse fill="none" stroke="#000000" cx="259.6" cy="-837.748" rx="18.724" ry="18.724"/>
<ellipse fill="none" stroke="#000000" cx="259.6" cy="-837.748" rx="22.6977" ry="22.6977"/>
<text text-anchor="middle" x="259.6" y="-834.048" font-family="Times,serif" font-size="14.00" fill="#000000">s4</text>
</g>
<!-- s0&#45;&gt;s4 -->
<g id="edge5" class="edge">
<title>s0&#45;&gt;s4</title>
<path fill="none" stroke="#000000" d="M69.1645,-591.9429C73.4709,-638.0013 86.9192,-757.6166 112.6,-786.748 141.5334,-819.5689 192.6997,-831.274 226.3832,-835.4447"/>
<polygon fill="#000000" stroke="#000000" points="226.3374,-838.96 236.6548,-836.5513 227.0872,-832.0003 226.3374,-838.96"/>
<text text-anchor="middle" x="163.6" y="-836.548" font-family="Times,serif" font-size="14.00" fill="#000000">x</text>
</g>
<!-- s5 -->
<g id="node7" class="node">
<title>s5</title>
<ellipse fill="none" stroke="#000000" cx="259.6" cy="-773.748" rx="18.724" ry="18.724"/>
<ellipse fill="none" stroke="#000000" cx="259.6" cy="-773.748" rx="22.6977" ry="22.6977"/>
<text text-anchor="middle" x="259.6" y="-770.048" font-family="Times,serif" font-size="14.00" fill="#000000">s5</text>
</g>
<!-- s0&#45;&gt;s5 -->
<g id="edge6" class="edge">
<title>s0&#45;&gt;s5</title>
<path fill="none" stroke="#000000" d="M70.9651,-591.7291C77.8666,-626.8569 94.5044,-702.8224 112.6,-721.748 142.8169,-753.3509 193.4217,-765.7751 226.6587,-770.6413"/>
<polygon fill="#000000" stroke="#000000" points="226.4216,-774.14 236.7919,-771.9703 227.332,-767.1995 226.4216,-774.14"/>
<text text-anchor="middle" x="163.6" y="-771.548" font-family="Times,serif" font-size="14.00" fill="#000000">/</text>
</g>
<!-- s6 -->
<g id="node8" class="node">
<title>s6</title>
<ellipse fill="none" stroke="#000000" cx="259.6" cy="-709.748" rx="18.724" ry="18.724"/>
<ellipse fill="none" stroke="#000000" cx="259.6" cy="-709.748" rx="22.6977" ry="22.6977"/>
<text text-anchor="middle" x="259.6" y="-706.048" font-family="Times,serif" font-size="14.00" fill="#000000">s6</text>
</g>
<!-- s0&#45;&gt;s6 -->
<g id="edge7" class="edge">
<title>s0&#45;&gt;s6</title>
<path fill="none" stroke="#000000" d="M72.4209,-591.6425C78.5958,-611.2655 91.1486,-642.3992 112.6,-660.748 145.2009,-688.6337 194.229,-700.7918 226.567,-705.9959"/>
<polygon fill="#000000" stroke="#000000" points="226.4434,-709.5152 236.8461,-707.5068 227.4615,-702.5896 226.4434,-709.5152"/>
<text text-anchor="middle" x="163.6" y="-706.548" font-family="Times,serif" font-size="14.00" fill="#000000">^</text>
</g>
<!-- s7 -->
<g id="node9" class="node">
<title>s7</title>
<ellipse fill="none" stroke="#000000" cx="259.6" cy="-650.748" rx="27" ry="18"/>
<text text-anchor="middle" x="259.6" y="-647.048" font-family="Times,serif" font-size="14.00" fill="#000000">s7</text>
</g>
<!-- s0&#45;&gt;s7 -->
<g id="edge8" class="edge">
<title>s0&#45;&gt;s7</title>
<path fill="none" stroke="#000000" d="M83.1593,-588.7991C91.3588,-596.0224 101.9143,-604.2747 112.6,-609.748 148.0873,-627.925 192.6501,-638.8995 223.3554,-644.8582"/>
<polygon fill="#000000" stroke="#000000" points="222.7327,-648.3023 233.2041,-646.6898 224.0126,-641.4203 222.7327,-648.3023"/>
<text text-anchor="middle" x="163.6" y="-645.548" font-family="Times,serif" font-size="14.00" fill="#000000">s</text>
</g>
<!-- s8 -->
<g id="node10" class="node">
<title>s8</title>
<ellipse fill="none" stroke="#000000" cx="259.6" cy="-596.748" rx="27" ry="18"/>
<text text-anchor="middle" x="259.6" y="-593.048" font-family="Times,serif" font-size="14.00" fill="#000000">s8</text>
</g>
<!-- s0&#45;&gt;s8 -->
<g id="edge9" class="edge">
<title>s0&#45;&gt;s8</title>
<path fill="none" stroke="#000000" d="M94.2968,-576.946C127.7324,-580.9513 185.184,-587.8336 222.7801,-592.3373"/>
<polygon fill="#000000" stroke="#000000" points="222.4758,-595.8258 232.8212,-593.5401 223.3085,-588.8754 222.4758,-595.8258"/>
<text text-anchor="middle" x="163.6" y="-594.548" font-family="Times,serif" font-size="14.00" fill="#000000">c</text>
</g>
<!-- s9 -->
<g id="node11" class="node">
<title>s9</title>
<ellipse fill="none" stroke="#000000" cx="259.6" cy="-542.748" rx="27" ry="18"/>
<text text-anchor="middle" x="259.6" y="-539.048" font-family="Times,serif" font-size="14.00" fill="#000000">s9</text>
</g>
<!-- s0&#45;&gt;s9 -->
<g id="edge10" class="edge">
<title>s0&#45;&gt;s9</title>
<path fill="none" stroke="#000000" d="M91.6694,-565.352C98.3785,-563.2612 105.7158,-561.2036 112.6,-559.748 149.5865,-551.9273 192.622,-547.4806 222.532,-545.113"/>
<polygon fill="#000000" stroke="#000000" points="222.8238,-548.601 232.5328,-544.3601 222.2982,-541.6208 222.8238,-548.601"/>
<text text-anchor="middle" x="163.6" y="-563.548" font-family="Times,serif" font-size="14.00" fill="#000000">t</text>
</g>
<!-- s10 -->
<g id="node12" class="node">
<title>s10</title>
<ellipse fill="none" stroke="#000000" cx="259.6" cy="-479.748" rx="22.9609" ry="22.9609"/>
<ellipse fill="none" stroke="#000000" cx="259.6" cy="-479.748" rx="26.9983" ry="26.9983"/>
<text text-anchor="middle" x="259.6" y="-476.048" font-family="Times,serif" font-size="14.00" fill="#000000">s10</text>
</g>
<!-- s0&#45;&gt;s10 -->
<g id="edge11" class="edge">
<title>s0&#45;&gt;s10</title>
<path fill="none" stroke="#000000" d="M79.7714,-557.3628C88.0333,-547.2685 99.7609,-534.767 112.6,-526.748 146.9008,-505.3245 191.8554,-492.825 222.977,-486.1738"/>
<polygon fill="#000000" stroke="#000000" points="223.866,-489.5647 232.9655,-484.138 222.468,-482.7057 223.866,-489.5647"/>
<text text-anchor="middle" x="163.6" y="-530.548" font-family="Times,serif" font-size="14.00" fill="#000000">(,[,{</text>
</g>
<!-- s11 -->
<g id="node13" class="node">
<title>s11</title>
<ellipse fill="none" stroke="#000000" cx="259.6" cy="-408.748" rx="22.9609" ry="22.9609"/>
<ellipse fill="none" stroke="#000000" cx="259.6" cy="-408.748" rx="26.9983" ry="26.9983"/>
<text text-anchor="middle" x="259.6" y="-405.048" font-family="Times,serif" font-size="14.00" fill="#000000">s11</text>
</g>
<!-- s0&#45;&gt;s11 -->
<g id="edge12" class="edge">
<title>s0&#45;&gt;s11</title>
<path fill="none" stroke="#000000" d="M71.0774,-555.5722C76.3271,-532.7305 88.3536,-493.6327 112.6,-469.748 143.0618,-439.7406 190.412,-423.7215 223.1012,-415.7442"/>
<polygon fill="#000000" stroke="#000000" points="224.1993,-419.083 233.1595,-413.4291 222.6292,-412.2614 224.1993,-419.083"/>
<text text-anchor="middle" x="163.6" y="-473.548" font-family="Times,serif" font-size="14.00" fill="#000000">),],}</text>
</g>
<!-- s12 -->
<g id="node14" class="node">
<title>s12</title>
<ellipse fill="none" stroke="#000000" cx="259.6" cy="-304.748" rx="22.9609" ry="22.9609"/>
<ellipse fill="none" stroke="#000000" cx="259.6" cy="-304.748" rx="26.9983" ry="26.9983"/>
<text text-anchor="middle" x="259.6" y="-301.048" font-family="Times,serif" font-size="14.00" fill="#000000">s12</text>
</g>
<!-- s0&#45;&gt;s12 -->
<g id="edge13" class="edge">
<title>s0&#45;&gt;s12</title>
<path fill="none" stroke="#000000" d="M70.5262,-555.6414C77.1698,-516.2131 94.2461,-424.0919 112.6,-398.748 140.9809,-359.5584 191.175,-332.6778 224.9121,-318.003"/>
<polygon fill="#000000" stroke="#000000" points="226.5272,-321.1206 234.3851,-314.0139 223.8105,-314.6693 226.5272,-321.1206"/>
<text text-anchor="middle" x="163.6" y="-402.548" font-family="Times,serif" font-size="14.00" fill="#000000">0,1,2,3,4,5,6,7,8,9</text>
</g>
<!-- s13 -->
<g id="node15" class="node">
<title>s13</title>
<ellipse fill="none" stroke="#000000" cx="259.6" cy="-233.748" rx="22.9609" ry="22.9609"/>
<ellipse fill="none" stroke="#000000" cx="259.6" cy="-233.748" rx="26.9983" ry="26.9983"/>
<text text-anchor="middle" x="259.6" y="-230.048" font-family="Times,serif" font-size="14.00" fill="#000000">s13</text>
</g>
<!-- s0&#45;&gt;s13 -->
<g id="edge14" class="edge">
<title>s0&#45;&gt;s13</title>
<path fill="none" stroke="#000000" d="M68.465,-555.7473C71.3705,-501.9923 82.3567,-343.8829 112.6,-303.748 139.4244,-268.1502 188.9769,-249.8475 223.0805,-241.0398"/>
<polygon fill="#000000" stroke="#000000" points="224.2332,-244.3617 233.1261,-238.6025 222.5828,-237.559 224.2332,-244.3617"/>
<text text-anchor="middle" x="163.6" y="-307.548" font-family="Times,serif" font-size="14.00" fill="#000000">π</text>
</g>
<!-- s14 -->
<g id="node16" class="node">
<title>s14</title>
<ellipse fill="none" stroke="#000000" cx="259.6" cy="-170.748" rx="27" ry="18"/>
<text text-anchor="middle" x="259.6" y="-167.048" font-family="Times,serif" font-size="14.00" fill="#000000">s14</text>
</g>
<!-- s0&#45;&gt;s14 -->
<g id="edge15" class="edge">
<title>s0&#45;&gt;s14</title>
<path fill="none" stroke="#000000" d="M68.8326,-555.567C73.599,-487.4489 91.6052,-249.9069 112.6,-223.748 139.2224,-190.5771 188.3711,-178.1572 222.4694,-173.5126"/>
<polygon fill="#000000" stroke="#000000" points="223.0148,-176.9723 232.5269,-172.3064 222.1812,-170.0221 223.0148,-176.9723"/>
<text text-anchor="middle" x="163.6" y="-227.548" font-family="Times,serif" font-size="14.00" fill="#000000">P</text>
</g>
<!-- s15 -->
<g id="node17" class="node">
<title>s15</title>
<ellipse fill="none" stroke="#000000" cx="259.6" cy="-107.748" rx="22.9609" ry="22.9609"/>
<ellipse fill="none" stroke="#000000" cx="259.6" cy="-107.748" rx="26.9983" ry="26.9983"/>
<text text-anchor="middle" x="259.6" y="-104.048" font-family="Times,serif" font-size="14.00" fill="#000000">s15</text>
</g>
<!-- s0&#45;&gt;s15 -->
<g id="edge16" class="edge">
<title>s0&#45;&gt;s15</title>
<path fill="none" stroke="#000000" d="M68.4085,-555.5108C71.9493,-479.1047 87.0615,-187.251 112.6,-155.748 139.1827,-122.9568 188.5653,-112.3387 222.7126,-109.0265"/>
<polygon fill="#000000" stroke="#000000" points="223.0917,-112.5074 232.7788,-108.2166 222.5303,-105.5299 223.0917,-112.5074"/>
<text text-anchor="middle" x="163.6" y="-159.548" font-family="Times,serif" font-size="14.00" fill="#000000">e</text>
</g>
<!-- s16 -->
<g id="node18" class="node">
<title>s16</title>
<ellipse fill="none" stroke="#000000" cx="259.6" cy="-44.748" rx="27" ry="18"/>
<text text-anchor="middle" x="259.6" y="-41.048" font-family="Times,serif" font-size="14.00" fill="#000000">s16</text>
</g>
<!-- s0&#45;&gt;s16 -->
<g id="edge17" class="edge">
<title>s0&#45;&gt;s16</title>
<path fill="none" stroke="#000000" d="M68.1175,-555.5579C70.6497,-472.0068 82.838,-127.5361 112.6,-90.748 138.9692,-58.1537 188.1747,-48.2296 222.3553,-45.433"/>
<polygon fill="#000000" stroke="#000000" points="222.6872,-48.9189 232.4387,-44.7767 222.2325,-41.9337 222.6872,-48.9189"/>
<text text-anchor="middle" x="163.6" y="-94.548" font-family="Times,serif" font-size="14.00" fill="#000000">l</text>
</g>
<!-- s17 -->
<g id="node19" class="node">
<title>s17</title>
<ellipse fill="none" stroke="#000000" cx="356.6" cy="-901.748" rx="22.9609" ry="22.9609"/>
<ellipse fill="none" stroke="#000000" cx="356.6" cy="-901.748" rx="26.9983" ry="26.9983"/>
<text text-anchor="middle" x="356.6" y="-898.048" font-family="Times,serif" font-size="14.00" fill="#000000">s17</text>
</g>
<!-- s3&#45;&gt;s17 -->
<g id="edge18" class="edge">
<title>s3&#45;&gt;s17</title>
<path fill="none" stroke="#000000" d="M282.5876,-901.748C293.6173,-901.748 307.108,-901.748 319.5361,-901.748"/>
<polygon fill="#000000" stroke="#000000" points="319.6486,-905.2481 329.6485,-901.748 319.6485,-898.2481 319.6486,-905.2481"/>
<text text-anchor="middle" x="308.1" y="-905.548" font-family="Times,serif" font-size="14.00" fill="#000000">*</text>
</g>
<!-- s18 -->
<g id="node20" class="node">
<title>s18</title>
<ellipse fill="none" stroke="#000000" cx="356.6" cy="-660.748" rx="27" ry="18"/>
<text text-anchor="middle" x="356.6" y="-657.048" font-family="Times,serif" font-size="14.00" fill="#000000">s18</text>
</g>
<!-- s7&#45;&gt;s18 -->
<g id="edge19" class="edge">
<title>s7&#45;&gt;s18</title>
<path fill="none" stroke="#000000" d="M286.3624,-653.507C296.5615,-654.5584 308.3775,-655.7766 319.3747,-656.9103"/>
<polygon fill="#000000" stroke="#000000" points="319.2819,-660.4192 329.5881,-657.9633 319.9998,-653.4561 319.2819,-660.4192"/>
<text text-anchor="middle" x="308.1" y="-659.548" font-family="Times,serif" font-size="14.00" fill="#000000">i</text>
</g>
<!-- s19 -->
<g id="node21" class="node">
<title>s19</title>
<ellipse fill="none" stroke="#000000" cx="356.6" cy="-601.748" rx="27" ry="18"/>
<text text-anchor="middle" x="356.6" y="-598.048" font-family="Times,serif" font-size="14.00" fill="#000000">s19</text>
</g>
<!-- s8&#45;&gt;s19 -->
<g id="edge20" class="edge">
<title>s8&#45;&gt;s19</title>
<path fill="none" stroke="#000000" d="M286.6199,-598.1408C296.7304,-598.6619 308.4016,-599.2635 319.2794,-599.8242"/>
<polygon fill="#000000" stroke="#000000" points="319.2216,-603.3258 329.3886,-600.3453 319.582,-596.3351 319.2216,-603.3258"/>
<text text-anchor="middle" x="308.1" y="-602.548" font-family="Times,serif" font-size="14.00" fill="#000000">o</text>
</g>
<!-- s20 -->
<g id="node22" class="node">
<title>s20</title>
<ellipse fill="none" stroke="#000000" cx="356.6" cy="-538.748" rx="22.9609" ry="22.9609"/>
<ellipse fill="none" stroke="#000000" cx="356.6" cy="-538.748" rx="26.9983" ry="26.9983"/>
<text text-anchor="middle" x="356.6" y="-535.048" font-family="Times,serif" font-size="14.00" fill="#000000">s20</text>
</g>
<!-- s9&#45;&gt;s20 -->
<g id="edge21" class="edge">
<title>s9&#45;&gt;s20</title>
<path fill="none" stroke="#000000" d="M286.6199,-541.6338C296.8154,-541.2133 308.5979,-540.7274 319.5534,-540.2757"/>
<polygon fill="#000000" stroke="#000000" points="319.8777,-543.7654 329.725,-539.8562 319.5892,-536.7713 319.8777,-543.7654"/>
<text text-anchor="middle" x="308.1" y="-544.548" font-family="Times,serif" font-size="14.00" fill="#000000">g</text>
</g>
<!-- s21 -->
<g id="node23" class="node">
<title>s21</title>
<ellipse fill="none" stroke="#000000" cx="356.6" cy="-475.748" rx="27" ry="18"/>
<text text-anchor="middle" x="356.6" y="-472.048" font-family="Times,serif" font-size="14.00" fill="#000000">s21</text>
</g>
<!-- s9&#45;&gt;s21 -->
<g id="edge22" class="edge">
<title>s9&#45;&gt;s21</title>
<path fill="none" stroke="#000000" d="M278.7641,-529.5109C293.2056,-519.5359 313.2056,-505.7214 329.3158,-494.5937"/>
<polygon fill="#000000" stroke="#000000" points="331.5669,-497.2927 337.8058,-488.7295 327.5886,-491.533 331.5669,-497.2927"/>
<text text-anchor="middle" x="308.1" y="-514.548" font-family="Times,serif" font-size="14.00" fill="#000000">a</text>
</g>
<!-- s12&#45;&gt;s12 -->
<g id="edge23" class="edge">
<title>s12&#45;&gt;s12</title>
<path fill="none" stroke="#000000" d="M250.6791,-330.049C250.0639,-340.574 253.0375,-349.496 259.6,-349.496 263.9066,-349.496 266.6677,-345.6536 267.8831,-340.0374"/>
<polygon fill="#000000" stroke="#000000" points="271.3765,-340.2517 268.5209,-330.049 264.3907,-339.8056 271.3765,-340.2517"/>
<text text-anchor="middle" x="259.6" y="-353.296" font-family="Times,serif" font-size="14.00" fill="#000000">0,1,2,3,4,5,6,7,8,9</text>
</g>
<!-- s22 -->
<g id="node24" class="node">
<title>s22</title>
<ellipse fill="none" stroke="#000000" cx="356.6" cy="-304.748" rx="27" ry="18"/>
<text text-anchor="middle" x="356.6" y="-301.048" font-family="Times,serif" font-size="14.00" fill="#000000">s22</text>
</g>
<!-- s12&#45;&gt;s22 -->
<g id="edge24" class="edge">
<title>s12&#45;&gt;s22</title>
<path fill="none" stroke="#000000" d="M286.3624,-304.748C296.5615,-304.748 308.3775,-304.748 319.3747,-304.748"/>
<polygon fill="#000000" stroke="#000000" points="319.5882,-308.2481 329.5881,-304.748 319.5881,-301.2481 319.5882,-308.2481"/>
<text text-anchor="middle" x="308.1" y="-308.548" font-family="Times,serif" font-size="14.00" fill="#000000">.</text>
</g>
<!-- s23 -->
<g id="node25" class="node">
<title>s23</title>
<ellipse fill="none" stroke="#000000" cx="356.6" cy="-170.748" rx="22.9609" ry="22.9609"/>
<ellipse fill="none" stroke="#000000" cx="356.6" cy="-170.748" rx="26.9983" ry="26.9983"/>
<text text-anchor="middle" x="356.6" y="-167.048" font-family="Times,serif" font-size="14.00" fill="#000000">s23</text>
</g>
<!-- s14&#45;&gt;s23 -->
<g id="edge25" class="edge">
<title>s14&#45;&gt;s23</title>
<path fill="none" stroke="#000000" d="M286.6199,-170.748C296.8154,-170.748 308.5979,-170.748 319.5534,-170.748"/>
<polygon fill="#000000" stroke="#000000" points="319.725,-174.2481 329.725,-170.748 319.725,-167.2481 319.725,-174.2481"/>
<text text-anchor="middle" x="308.1" y="-174.548" font-family="Times,serif" font-size="14.00" fill="#000000">I</text>
</g>
<!-- s24 -->
<g id="node26" class="node">
<title>s24</title>
<ellipse fill="none" stroke="#000000" cx="356.6" cy="-89.748" rx="22.9609" ry="22.9609"/>
<ellipse fill="none" stroke="#000000" cx="356.6" cy="-89.748" rx="26.9983" ry="26.9983"/>
<text text-anchor="middle" x="356.6" y="-86.048" font-family="Times,serif" font-size="14.00" fill="#000000">s24</text>
</g>
<!-- s16&#45;&gt;s24 -->
<g id="edge26" class="edge">
<title>s16&#45;&gt;s24</title>
<path fill="none" stroke="#000000" d="M282.0976,-55.185C294.1671,-60.7842 309.2868,-67.7986 322.7459,-74.0425"/>
<polygon fill="#000000" stroke="#000000" points="321.6411,-77.3882 332.1854,-78.4216 324.587,-71.0382 321.6411,-77.3882"/>
<text text-anchor="middle" x="308.1" y="-71.548" font-family="Times,serif" font-size="14.00" fill="#000000">n</text>
</g>
<!-- s25 -->
<g id="node27" class="node">
<title>s25</title>
<ellipse fill="none" stroke="#000000" cx="356.6" cy="-26.748" rx="27" ry="18"/>
<text text-anchor="middle" x="356.6" y="-23.048" font-family="Times,serif" font-size="14.00" fill="#000000">s25</text>
</g>
<!-- s16&#45;&gt;s25 -->
<g id="edge27" class="edge">
<title>s16&#45;&gt;s25</title>
<path fill="none" stroke="#000000" d="M285.8496,-39.8769C296.4171,-37.9159 308.7838,-35.6211 320.1961,-33.5033"/>
<polygon fill="#000000" stroke="#000000" points="321.1359,-36.8888 330.3294,-31.6229 319.8587,-30.0063 321.1359,-36.8888"/>
<text text-anchor="middle" x="308.1" y="-40.548" font-family="Times,serif" font-size="14.00" fill="#000000">o</text>
</g>
<!-- s26 -->
<g id="node28" class="node">
<title>s26</title>
<ellipse fill="none" stroke="#000000" cx="548.348" cy="-664.748" rx="22.9609" ry="22.9609"/>
<ellipse fill="none" stroke="#000000" cx="548.348" cy="-664.748" rx="26.9983" ry="26.9983"/>
<text text-anchor="middle" x="548.348" y="-661.048" font-family="Times,serif" font-size="14.00" fill="#000000">s26</text>
</g>
<!-- s18&#45;&gt;s26 -->
<g id="edge28" class="edge">
<title>s18&#45;&gt;s26</title>
<path fill="none" stroke="#000000" d="M383.6661,-661.3126C416.9274,-662.0065 473.5414,-663.1875 510.9453,-663.9677"/>
<polygon fill="#000000" stroke="#000000" points="511.3487,-667.4768 521.4196,-664.1862 511.4948,-660.4783 511.3487,-667.4768"/>
<text text-anchor="middle" x="452.6" y="-667.548" font-family="Times,serif" font-size="14.00" fill="#000000">n</text>
</g>
<!-- s27 -->
<g id="node29" class="node">
<title>s27</title>
<ellipse fill="none" stroke="#000000" cx="548.348" cy="-593.748" rx="22.9609" ry="22.9609"/>
<ellipse fill="none" stroke="#000000" cx="548.348" cy="-593.748" rx="26.9983" ry="26.9983"/>
<text text-anchor="middle" x="548.348" y="-590.048" font-family="Times,serif" font-size="14.00" fill="#000000">s27</text>
</g>
<!-- s19&#45;&gt;s27 -->
<g id="edge29" class="edge">
<title>s19&#45;&gt;s27</title>
<path fill="none" stroke="#000000" d="M383.6661,-600.6187C417.0702,-599.2251 474.0278,-596.8487 511.4259,-595.2884"/>
<polygon fill="#000000" stroke="#000000" points="511.5742,-598.7854 521.4196,-594.8715 511.2823,-591.7915 511.5742,-598.7854"/>
<text text-anchor="middle" x="452.6" y="-603.548" font-family="Times,serif" font-size="14.00" fill="#000000">s</text>
</g>
<!-- s28 -->
<g id="node30" class="node">
<title>s28</title>
<ellipse fill="none" stroke="#000000" cx="548.348" cy="-475.748" rx="22.9609" ry="22.9609"/>
<ellipse fill="none" stroke="#000000" cx="548.348" cy="-475.748" rx="26.9983" ry="26.9983"/>
<text text-anchor="middle" x="548.348" y="-472.048" font-family="Times,serif" font-size="14.00" fill="#000000">s28</text>
</g>
<!-- s21&#45;&gt;s28 -->
<g id="edge30" class="edge">
<title>s21&#45;&gt;s28</title>
<path fill="none" stroke="#000000" d="M383.6661,-475.748C416.9274,-475.748 473.5414,-475.748 510.9453,-475.748"/>
<polygon fill="#000000" stroke="#000000" points="511.4196,-479.2481 521.4196,-475.748 511.4195,-472.2481 511.4196,-479.2481"/>
<text text-anchor="middle" x="452.6" y="-479.548" font-family="Times,serif" font-size="14.00" fill="#000000">n</text>
</g>
<!-- s29 -->
<g id="node31" class="node">
<title>s29</title>
<ellipse fill="none" stroke="#000000" cx="548.348" cy="-304.748" rx="22.9609" ry="22.9609"/>
<ellipse fill="none" stroke="#000000" cx="548.348" cy="-304.748" rx="26.9983" ry="26.9983"/>
<text text-anchor="middle" x="548.348" y="-301.048" font-family="Times,serif" font-size="14.00" fill="#000000">s29</text>
</g>
<!-- s22&#45;&gt;s29 -->
<g id="edge31" class="edge">
<title>s22&#45;&gt;s29</title>
<path fill="none" stroke="#000000" d="M383.6661,-304.748C416.9274,-304.748 473.5414,-304.748 510.9453,-304.748"/>
<polygon fill="#000000" stroke="#000000" points="511.4196,-308.2481 521.4196,-304.748 511.4195,-301.2481 511.4196,-308.2481"/>
<text text-anchor="middle" x="452.6" y="-308.548" font-family="Times,serif" font-size="14.00" fill="#000000">0,1,2,3,4,5,6,7,8,9</text>
</g>
<!-- s30 -->
<g id="node32" class="node">
<title>s30</title>
<ellipse fill="none" stroke="#000000" cx="548.348" cy="-26.748" rx="22.9609" ry="22.9609"/>
<ellipse fill="none" stroke="#000000" cx="548.348" cy="-26.748" rx="26.9983" ry="26.9983"/>
<text text-anchor="middle" x="548.348" y="-23.048" font-family="Times,serif" font-size="14.00" fill="#000000">s30</text>
</g>
<!-- s25&#45;&gt;s30 -->
<g id="edge32" class="edge">
<title>s25&#45;&gt;s30</title>
<path fill="none" stroke="#000000" d="M383.6661,-26.748C416.9274,-26.748 473.5414,-26.748 510.9453,-26.748"/>
<polygon fill="#000000" stroke="#000000" points="511.4196,-30.2481 521.4196,-26.748 511.4195,-23.2481 511.4196,-30.2481"/>
<text text-anchor="middle" x="452.6" y="-30.548" font-family="Times,serif" font-size="14.00" fill="#000000">g</text>
</g>
<!-- s29&#45;&gt;s29 -->
<g id="edge33" class="edge">
<title>s29&#45;&gt;s29</title>
<path fill="none" stroke="#000000" d="M531.6912,-325.9253C528.2918,-338.1324 533.8441,-349.496 548.348,-349.496 558.6594,-349.496 564.4463,-343.7524 565.7088,-336.0456"/>
<polygon fill="#000000" stroke="#000000" points="569.1904,-335.6583 565.0048,-325.9253 562.2073,-336.1441 569.1904,-335.6583"/>
<text text-anchor="middle" x="548.348" y="-353.296" font-family="Times,serif" font-size="14.00" fill="#000000">0,1,2,3,4,5,6,7,8,9</text>
</g>
</g>
</svg>
